<?xml version="1.0" encoding="UTF-8"?><svg id="Layer_1" xmlns="http://www.w3.org/2000/svg" xmlns:xlink="http://www.w3.org/1999/xlink" viewBox="0 0 430 430"><defs><style>.cls-1{fill:url(#linear-gradient-2);}.cls-2{fill:url(#linear-gradient);}.cls-3{fill:#fff;}</style><linearGradient id="linear-gradient" x1="300.3" y1="221.83" x2="300.3" y2="-8.25" gradientUnits="userSpaceOnUse"><stop offset="0" stop-color="#020202"/><stop offset=".14" stop-color="#020202"/><stop offset="1" stop-color="#020202"/></linearGradient><linearGradient id="linear-gradient-2" x1="119.35" y1="221.83" x2="119.35" y2="436.5" gradientUnits="userSpaceOnUse"><stop offset="0" stop-color="#020202"/><stop offset=".14" stop-color="#020202"/><stop offset="1" stop-color="#020202"/></linearGradient></defs><path class="cls-2" d="M220.01-8.25s5.52.35,2.76,14.98c-2.76,14.63,2.4,16.68-7.25,29.43-9.65,12.75-16.38,10.7-26.28,25.29s-17.95,9.25-19.23,23.44c-1.28,14.19-4.49,18.94-1.92,26.43,2.56,7.49-1.28,9.96,9.62,21.06,10.9,11.1,16.03,18.51,28.21,25.91,12.18,7.4,22.1,14.44,27.21,23.56,5.11,9.13,11.91,14.79,13.04,24.55,1.13,9.76.77,15.42.77,15.42h186.54V-8.25h-213.46Z"/><path class="cls-1" d="M216.67,429.09l-16.87-24.06s-9.73-22.21-12.33-36.39c-2.6-14.19-4.88-20.97-1.64-33.31,3.24-12.34,2.53-22.82,9.66-31.46s11.59-18.37,18.95-27.76c7.36-9.39,19.46-26.52,19.46-26.52,0,0,2.5-3.33,6.35-10.49,3.65-6.79,3.65-17.27,3.65-17.27H-5.23v214.66h227.09l-5.19-7.4Z"/><path class="cls-3" d="M211.92,423.04c-.06-.02-.35-.15-.85-.94-2.41-3.75-4.62-7.49-6.57-11.14-18.2-33.93-22.64-69.87-12.18-98.61,5.33-14.64,14.93-27.19,24.21-39.33,1.53-2,3.06-4,4.57-6,11.51-15.29,22.21-32.04,22.57-50.85.36-18.79-12.84-32.85-22.8-41.78-4.83-4.33-9.99-8.4-14.98-12.34-7.82-6.17-15.9-12.55-22.82-20.02-8.94-9.66-19.37-24.96-18.31-43.01.62-10.44,5.45-20.84,14.76-31.79,4.17-4.89,8.79-9.52,13.25-13.99,4.32-4.32,8.78-8.79,12.84-13.5,6.12-7.11,14.24-18.09,14.04-31.4-.01-.71.14-1.12.27-1.25.04-.04.07-.05.13-.05s.18.02.38.12c.91.49,1.36,2.54,1.38,3.78.05,3-.19,5.82-.69,8.38-2.35,12.04-10.36,21.95-17.08,29.24-3.09,3.35-6.37,6.63-9.54,9.81-5.48,5.48-11.14,11.15-16.02,17.36-9.68,12.32-13.36,24.33-10.93,35.69,3.49,16.32,16.93,29.05,29.62,39.35,2.59,2.1,5.26,4.2,7.84,6.22,9.65,7.57,19.62,15.4,27.43,25.17,10.72,13.42,15.2,29.42,12.6,45.08-3.29,19.89-15.34,35.76-27,51.1-9.82,12.93-19.98,26.31-25.02,42.14-9.38,29.46-2.59,65.3,18.62,98.34.5.77.73,2.61.47,3.71-.08.35-.18.47-.21.51Z"/><path class="cls-3" d="M220.23,7.63c.6.36,1.07,2.04,1.09,3.33.04,3-.18,5.71-.68,8.28-2.32,11.92-10.28,21.76-16.96,29-3.08,3.34-6.36,6.62-9.52,9.79-5.49,5.49-11.16,11.17-16.06,17.4-9.78,12.44-13.48,24.59-11.02,36.11,3.52,16.47,17.04,29.28,29.79,39.63,2.59,2.1,5.27,4.2,7.85,6.23,9.62,7.55,19.57,15.36,27.34,25.09,10.63,13.31,15.07,29.17,12.5,44.68-3.27,19.77-15.28,35.58-26.9,50.88-9.85,12.97-20.03,26.38-25.09,42.29-5.03,15.81-5.55,33.07-1.55,51.29,3.49,15.87,10.48,32.29,20.23,47.47.43.68.57,2.19.46,3.05-.06-.09-.14-.19-.22-.31-2.39-3.73-4.6-7.47-6.55-11.1-18.13-33.8-22.56-69.6-12.15-98.2,5.3-14.57,14.88-27.09,24.14-39.19,1.53-2,3.06-4,4.57-6.01,11.56-15.36,22.3-32.19,22.67-51.14.37-19-12.93-33.16-22.96-42.16-4.84-4.34-10-8.42-15-12.36-7.8-6.16-15.87-12.53-22.76-19.97-8.87-9.59-19.23-24.77-18.17-42.64.61-10.33,5.4-20.63,14.65-31.49,4.15-4.88,8.77-9.5,13.23-13.96,4.32-4.33,8.79-8.8,12.86-13.53,6.18-7.17,14.36-18.26,14.16-31.74,0-.33.03-.57.07-.71M220.06,6.55c-.71,0-.91.95-.9,1.81.18,11.98-6.36,22.3-13.92,31.07-8.25,9.58-17.89,17.87-26.09,27.5-7.8,9.16-14.16,19.81-14.88,32.08-.98,16.51,7.54,31.6,18.44,43.38,11.35,12.26,25.44,21.28,37.83,32.39,12.09,10.84,22.96,24.33,22.63,41.4-.36,18.96-11.46,35.93-22.47,50.56-10.8,14.35-22.63,28.36-28.85,45.46-11.84,32.54-3.7,69.34,12.21,99.01,2.05,3.81,4.25,7.53,6.59,11.17.54.83.96,1.17,1.29,1.17,1.07,0,1.03-3.62.15-4.99-18.25-28.42-29.14-64.66-18.56-97.92,11-34.58,45.94-56.56,52.03-93.31,2.73-16.48-2.39-32.56-12.71-45.47-9.94-12.44-23.09-21.52-35.34-31.47-12.33-10.01-25.98-22.88-29.44-39.07-2.78-13,2.96-25.27,10.83-35.28,7.69-9.79,17.12-18.01,25.53-27.13,7.78-8.44,14.96-17.99,17.21-29.49.54-2.79.74-5.64.7-8.48-.02-1.2-.45-3.58-1.64-4.22-.24-.13-.44-.18-.61-.18h0Z"/></svg>